<svg width="26" height="26" viewBox="0 0 26 26" fill="none" xmlns="http://www.w3.org/2000/svg">
<path d="M16.25 16.2502V18.4169H24.9167V16.2502M16.2175 12.5777C16.0875 11.1369 14.7225 9.71774 13 9.75024C11.1583 9.78274 9.75 11.1586 9.75 13.0002C9.75 14.8419 11.1583 16.1852 13 16.2502C13.4117 16.2502 13.8342 16.1636 14.235 16.0011C14.5275 14.8094 15.015 13.6827 16.2175 12.5777ZM14.0833 17.3336H7.58333C7.58333 16.7589 7.35506 16.2078 6.94873 15.8015C6.5424 15.3952 5.9913 15.1669 5.41667 15.1669V10.8336C6.61917 10.8336 7.58333 9.86941 7.58333 8.66691H18.4167C18.4167 9.24155 18.6449 9.79265 19.0513 10.199C19.4576 10.6053 20.0087 10.8336 20.5833 10.8336V10.8986C21.3092 10.8986 22.035 11.0286 22.75 11.2669V6.50024H3.25V19.5002H14.43C14.1998 18.8011 14.0828 18.0697 14.0833 17.3336Z" fill="white"/>
</svg>
