<svg width="512" height="512" viewBox="0 0 512 512" fill="none" xmlns="http://www.w3.org/2000/svg">
<rect x="1" y="1" width="510" height="510" rx="255" fill="#0EA35B" stroke="#0EA35B" stroke-width="2"/>
<path d="M255.998 298.667C229.829 298.667 227.554 286.436 227.554 284.444H199.109C199.109 297.529 208.496 320.711 241.776 325.973V341.333H270.22V325.973C298.665 321.138 312.887 302.791 312.887 284.444C312.887 268.516 305.492 241.778 255.998 241.778C227.554 241.778 227.554 232.818 227.554 227.556C227.554 222.293 237.509 213.333 255.998 213.333C274.487 213.333 275.767 222.436 275.909 227.556H304.354C304.162 217.867 300.677 208.532 294.473 201.087C288.269 193.643 279.716 188.532 270.22 186.596V170.667H241.776V186.169C213.332 190.862 199.109 209.209 199.109 227.556C199.109 243.484 206.505 270.222 255.998 270.222C284.443 270.222 284.443 279.893 284.443 284.444C284.443 288.996 275.625 298.667 255.998 298.667Z" fill="white"/>
<path d="M156.443 113.778H113.776V142.222H142.221V384C142.221 387.772 143.719 391.39 146.386 394.057C149.054 396.724 152.671 398.222 156.443 398.222H355.554C359.326 398.222 362.944 396.724 365.611 394.057C368.278 391.39 369.776 387.772 369.776 384V142.222H398.221V113.778H156.443ZM341.332 369.778H170.665V142.222H341.332V369.778Z" fill="white"/>
</svg>
