<svg width="512" height="512" viewBox="0 0 512 512" fill="none" xmlns="http://www.w3.org/2000/svg">
<rect width="512" height="512" rx="256" fill="#DA4444"/>
<path d="M241.776 398.223C237.747 398.223 234.371 396.857 231.65 394.127C228.919 391.405 227.554 388.03 227.554 384V309.689C227.554 309.215 227.791 308.03 228.265 306.134L247.465 251.023C248.65 248.415 250.367 246.225 252.614 244.452C254.87 242.669 257.658 241.778 260.976 241.778H364.799C368.117 241.778 370.905 242.669 373.161 244.452C375.408 246.225 377.125 248.415 378.31 251.023L397.51 306.134L398.221 309.689V384C398.221 388.03 396.855 391.405 394.125 394.127C391.404 396.857 388.028 398.223 383.999 398.223C379.969 398.223 376.594 396.857 373.872 394.127C371.142 391.405 369.776 388.03 369.776 384V376.889H255.999V384C255.999 388.03 254.638 391.405 251.917 394.127C249.186 396.857 245.806 398.223 241.776 398.223ZM255.999 291.556H369.776L359.821 263.111H265.954L255.999 291.556ZM270.221 348.445C274.25 348.445 277.631 347.079 280.361 344.349C283.082 341.628 284.443 338.252 284.443 334.223C284.443 330.193 283.082 326.817 280.361 324.096C277.631 321.366 274.25 320 270.221 320C266.191 320 262.816 321.366 260.095 324.096C257.364 326.817 255.999 330.193 255.999 334.223C255.999 338.252 257.364 341.628 260.095 344.349C262.816 347.079 266.191 348.445 270.221 348.445ZM355.554 348.445C359.584 348.445 362.959 347.079 365.68 344.349C368.411 341.628 369.776 338.252 369.776 334.223C369.776 330.193 368.411 326.817 365.68 324.096C362.959 321.366 359.584 320 355.554 320C351.525 320 348.149 321.366 345.428 324.096C342.697 326.817 341.332 330.193 341.332 334.223C341.332 338.252 342.697 341.628 345.428 344.349C348.149 347.079 351.525 348.445 355.554 348.445ZM170.665 284.445V256H199.11V284.445H170.665ZM241.776 199.111V170.667H270.221V199.111H241.776ZM170.665 341.334V312.889H199.11V341.334H170.665ZM170.665 398.223V369.778H199.11V398.223H170.665ZM113.776 398.223V227.556C113.776 219.734 116.564 213.035 122.139 207.46C127.705 201.894 134.399 199.111 142.221 199.111H184.887V142.223C184.887 134.4 187.675 127.702 193.25 122.127C198.816 116.561 205.51 113.778 213.332 113.778H298.665C306.487 113.778 313.186 116.561 318.761 122.127C324.327 127.702 327.11 134.4 327.11 142.223V213.334H298.665V142.223H213.332V227.556H142.221V398.223H113.776Z" fill="white"/>
</svg>
