<svg width="40" height="40" viewBox="0 0 40 40" fill="none" xmlns="http://www.w3.org/2000/svg">
<path d="M10.0001 31.6667H15.0001V21.6667H25.0001V31.6667H30.0001V16.6667L20.0001 9.16671L10.0001 16.6667V31.6667ZM10.0001 35C9.08341 35 8.29897 34.6739 7.64675 34.0217C6.99341 33.3684 6.66675 32.5834 6.66675 31.6667V16.6667C6.66675 16.1389 6.78508 15.6389 7.02175 15.1667C7.2573 14.6945 7.58342 14.3056 8.00008 14L18.0001 6.50004C18.3056 6.27782 18.6251 6.11115 18.9584 6.00004C19.2917 5.88893 19.639 5.83337 20.0001 5.83337C20.3612 5.83337 20.7084 5.88893 21.0417 6.00004C21.3751 6.11115 21.6945 6.27782 22.0001 6.50004L32.0001 14C32.4167 14.3056 32.7434 14.6945 32.9801 15.1667C33.2156 15.6389 33.3334 16.1389 33.3334 16.6667V31.6667C33.3334 32.5834 33.0073 33.3684 32.3551 34.0217C31.7017 34.6739 30.9167 35 30.0001 35H21.6667V25H18.3334V35H10.0001Z" fill="white"/>
</svg>
