<svg width="38" height="38" viewBox="0 0 38 38" fill="none" xmlns="http://www.w3.org/2000/svg">
<path d="M22.1666 15.675V12.9834C23.0374 12.6139 23.9283 12.3368 24.8393 12.1521C25.7491 11.9674 26.7055 11.875 27.7083 11.875C28.3944 11.875 29.0673 11.9278 29.727 12.0334C30.3867 12.1389 31.0333 12.2709 31.6666 12.4292V14.9625C31.0333 14.725 30.3936 14.5472 29.7476 14.429C29.1005 14.3097 28.4208 14.25 27.7083 14.25C26.7055 14.25 25.7423 14.3757 24.8187 14.6269C23.8951 14.877 23.011 15.2264 22.1666 15.675ZM22.1666 24.3834V21.6917C23.0374 21.3223 23.9283 21.0452 24.8393 20.8605C25.7491 20.6757 26.7055 20.5834 27.7083 20.5834C28.3944 20.5834 29.0673 20.6362 29.727 20.7417C30.3867 20.8473 31.0333 20.9792 31.6666 21.1375V23.6709C31.0333 23.4334 30.3936 23.2555 29.7476 23.1373C29.1005 23.018 28.4208 22.9584 27.7083 22.9584C26.7055 22.9584 25.7423 23.0771 24.8187 23.3146C23.8951 23.5521 23.011 23.9084 22.1666 24.3834ZM22.1666 20.0292V17.3375C23.0374 16.9681 23.9283 16.691 24.8393 16.5063C25.7491 16.3216 26.7055 16.2292 27.7083 16.2292C28.3944 16.2292 29.0673 16.282 29.727 16.3875C30.3867 16.4931 31.0333 16.625 31.6666 16.7834V19.3167C31.0333 19.0792 30.3936 18.9013 29.7476 18.7831C29.1005 18.6638 28.4208 18.6042 27.7083 18.6042C26.7055 18.6042 25.7423 18.7298 24.8187 18.981C23.8951 19.2312 23.011 19.5806 22.1666 20.0292ZM10.2916 25.3334C11.5319 25.3334 12.7394 25.4717 13.9143 25.7482C15.088 26.0258 16.2555 26.4417 17.4166 26.9959V11.4C16.3346 10.7667 15.1867 10.2917 13.9728 9.97504C12.7589 9.65837 11.5319 9.50004 10.2916 9.50004C9.34159 9.50004 8.39845 9.5924 7.46217 9.77712C6.52484 9.96185 5.62075 10.2389 4.74992 10.6084V26.2834C5.67353 25.9667 6.59081 25.7292 7.50175 25.5709C8.41164 25.4125 9.34159 25.3334 10.2916 25.3334ZM20.5833 26.9959C21.7444 26.4417 22.9123 26.0258 24.0872 25.7482C25.261 25.4717 26.468 25.3334 27.7083 25.3334C28.6583 25.3334 29.5887 25.4125 30.4997 25.5709C31.4096 25.7292 32.3263 25.9667 33.2499 26.2834V10.6084C32.3791 10.2389 31.4755 9.96185 30.5393 9.77712C29.6019 9.5924 28.6583 9.50004 27.7083 9.50004C26.468 9.50004 25.2409 9.65837 24.027 9.97504C22.8131 10.2917 21.6652 10.7667 20.5833 11.4V26.9959ZM18.9999 31.6667C17.7333 30.6639 16.361 29.8855 14.8833 29.3313C13.4055 28.7771 11.8749 28.5 10.2916 28.5C9.18325 28.5 8.09497 28.6452 7.02675 28.9355C5.95748 29.2257 4.93464 29.6348 3.95825 30.1625C3.40409 30.4528 2.86997 30.4396 2.35592 30.123C1.84081 29.8063 1.58325 29.3445 1.58325 28.7375V9.65837C1.58325 9.3681 1.65609 9.09101 1.80175 8.82712C1.94636 8.56323 2.16381 8.36532 2.45409 8.23337C3.66797 7.60004 4.93464 7.12504 6.25409 6.80837C7.57353 6.49171 8.91936 6.33337 10.2916 6.33337C11.8221 6.33337 13.32 6.53129 14.7851 6.92712C16.2491 7.32296 17.6541 7.91671 18.9999 8.70837C20.3458 7.91671 21.7512 7.32296 23.2163 6.92712C24.6804 6.53129 26.1777 6.33337 27.7083 6.33337C29.0805 6.33337 30.4263 6.49171 31.7458 6.80837C33.0652 7.12504 34.3319 7.60004 35.5458 8.23337C35.836 8.36532 36.054 8.56323 36.1997 8.82712C36.3443 9.09101 36.4166 9.3681 36.4166 9.65837V28.7375C36.4166 29.3445 36.1596 29.8063 35.6455 30.123C35.1304 30.4396 34.5958 30.4528 34.0416 30.1625C33.0652 29.6348 32.0424 29.2257 30.9731 28.9355C29.9049 28.6452 28.8166 28.5 27.7083 28.5C26.1249 28.5 24.5944 28.7771 23.1166 29.3313C21.6388 29.8855 20.2666 30.6639 18.9999 31.6667Z" fill="white"/>
</svg>
