<svg width="40" height="40" viewBox="0 0 40 40" fill="none" xmlns="http://www.w3.org/2000/svg">
<path d="M8.8833 5.45172C9.99502 5.05502 11.2009 5.00493 12.3417 5.30806C13.4825 5.61118 14.5045 6.25327 15.2727 7.14948C16.0409 8.04569 16.5191 9.15386 16.6442 10.3276C16.7693 11.5013 16.5354 12.6854 15.9733 13.7234L33.8216 31.5734L31.465 33.93L13.615 16.08C12.5768 16.6399 11.3933 16.872 10.2205 16.7459C9.04775 16.6197 7.94072 16.1412 7.04532 15.3734C6.14991 14.6056 5.50816 13.5845 5.20462 12.4447C4.90109 11.3049 4.95002 10.0998 5.34496 8.98838L9.0733 12.7167C9.30391 12.9555 9.57978 13.1459 9.88479 13.277C10.1898 13.408 10.5178 13.477 10.8498 13.4798C11.1817 13.4827 11.5109 13.4195 11.8182 13.2938C12.1254 13.1681 12.4046 12.9824 12.6393 12.7477C12.874 12.513 13.0596 12.2338 13.1854 11.9266C13.3111 11.6194 13.3743 11.2902 13.3714 10.9582C13.3685 10.6263 13.2996 10.2982 13.1686 9.9932C13.0375 9.68819 12.8471 9.41233 12.6083 9.18172L8.88163 5.45005L8.8833 5.45172ZM26.1616 8.59172L31.465 5.64505L33.8216 8.00172L30.875 13.305L27.9283 13.895L24.395 17.43L22.0366 15.0734L25.5716 11.5384L26.1616 8.59172ZM14.965 22.1451L17.3216 24.5017L8.4833 33.34C8.1828 33.6414 7.7784 33.8164 7.35301 33.8291C6.92763 33.8419 6.51349 33.6914 6.19549 33.4086C5.87749 33.1257 5.67974 32.732 5.64276 32.308C5.60579 31.884 5.7324 31.462 5.99663 31.1284L6.12663 30.9834L14.965 22.1451Z" fill="white"/>
</svg>
